<?xml version="1.0" encoding="UTF-8"?>
<svg width="35px" height="35px" viewBox="0 0 35 35" version="1.1" xmlns="http://www.w3.org/2000/svg" xmlns:xlink="http://www.w3.org/1999/xlink">
    <!-- Generator: Sketch 52.3 (67297) - http://www.bohemiancoding.com/sketch -->
    <title>Glyph/Paciente</title>
    <desc>Created with Sketch.</desc>
    <g id="Glyph/Paciente" stroke="none" stroke-width="1" fill="none" fill-rule="evenodd">
        <path d="M28.901245,25.5712357 C27.5960119,21.1123777 25.1871765,20.9584663 24.6681499,20.8373183 C24.6083507,20.8243653 24.5481681,20.8110314 24.4856856,20.7980785 C22.9121227,19.353826 23.9862087,13.3185194 23.9862087,13.3185194 C23.9862087,4.12041041 17.7272232,5.0244492 17.7272232,5.0244492 C17.6505575,5.02025855 17.5746585,5.0172108 17.5002928,5.01492498 C17.4255438,5.01759177 17.3500281,5.02025855 17.2733624,5.0244492 C17.2733624,5.0244492 11.0136102,4.11964847 11.0136102,13.3185194 C11.0136102,13.3185194 12.087313,19.3530641 10.51375,20.7980785 C10.4528008,20.8110314 10.391085,20.8228415 10.3316691,20.8373183 C9.81225914,20.9580854 7.40227372,21.1123777 6.09857395,25.5712357 C5.9222429,26.1777379 5.98395877,26.834909 6.27183837,27.3735988 C7.33979119,29.3832088 12.959385,30.0015211 17.5018261,29.9999972 C22.0423506,30.0015211 27.6634777,29.3832088 28.7314306,27.3751226 C29.0158602,26.83529 29.0775761,26.1777379 28.901245,25.5712357 Z M21.7517877,20.4944464 C21.731088,20.6643585 21.6555723,20.8270321 21.5344405,20.9805625 C20.9678812,21.7021173 19.3755352,22.7398761 17.4991428,22.7398761 C15.6219838,22.7398761 14.0292545,21.7002124 13.4634618,20.9805625 C13.3427134,20.8270321 13.2671977,20.6643585 13.2480313,20.4944464 C13.2760142,20.4849222 13.3415634,20.462445 13.4270456,20.4251101 C13.4623118,20.4094904 13.5002613,20.3881561 13.5408941,20.3694887 C13.883973,20.1908143 14.3884332,19.8163221 14.3884332,19.159913 C14.9304595,19.6940311 15.532285,20.1165254 16.1758933,20.3694887 C16.6082877,20.5405436 17.0598485,20.6346429 17.5232925,20.6346429 C17.9867365,20.6346429 18.4382973,20.5405436 18.8703084,20.3694887 C19.5077835,20.1176683 20.1053924,19.7001266 20.6412854,19.1747707 C20.6451187,19.1762946 20.6497187,19.1774375 20.6535519,19.1785804 C20.6665851,20.0258549 21.5194907,20.3965375 21.7529377,20.4811125 C21.7529377,20.486827 21.7529377,20.4921606 21.7517877,20.4944464 Z M22.7411582,14.2244631 C22.6549093,14.7010549 22.4666951,15.0942147 22.2696643,15.2633648 C22.189932,15.3296533 22.1094331,15.3605118 22.0312341,15.3475589 C21.989068,15.3407014 21.9469018,15.3193672 21.9112523,15.2858419 C21.4715747,16.6436145 20.6309356,17.9968154 19.571416,18.8105646 C18.951574,19.2856326 18.2585163,19.5770737 17.5259758,19.5770737 C16.7880687,19.5770737 16.0900278,19.2822039 15.4690358,18.8010404 C14.4144995,17.9884341 13.5784603,16.6382809 13.1410827,15.2843181 C13.1050498,15.3182243 13.065567,15.3395585 13.0207176,15.3467969 C12.9310187,15.3624167 12.8340366,15.3182243 12.7435711,15.2267918 C12.5584235,15.0427839 12.3889924,14.6701965 12.3088768,14.2237011 C12.2030782,13.6370093 12.2862604,13.1181299 12.494791,12.969933 C12.5235407,12.9485988 12.5542069,12.9356458 12.5875565,12.9295503 C12.6623055,12.9165974 12.7401212,12.9451701 12.8167869,13.007268 C12.8167869,13.007268 12.8175535,13.0007915 12.8179368,12.9893624 C12.8440032,12.7337324 13.1866987,9.87303823 15.3413875,10.071142 L21.9300354,13.4427152 L22.4617118,12.9322171 C22.4804949,12.9360268 22.5000447,12.9413604 22.5169111,12.9489798 C22.7511247,13.0571749 22.8515568,13.6027221 22.7411582,14.2244631 Z" id="User" fill="#FFFFFF"></path>
    </g>
</svg>