<?xml version="1.0" encoding="UTF-8"?>
<svg width="35px" height="35px" viewBox="0 0 35 35" version="1.1" xmlns="http://www.w3.org/2000/svg" xmlns:xlink="http://www.w3.org/1999/xlink">
    <!-- Generator: Sketch 52.3 (67297) - http://www.bohemiancoding.com/sketch -->
    <title>Glyph/Preferences</title>
    <desc>Created with Sketch.</desc>
    <g id="Glyph/Preferences" stroke="none" stroke-width="1" fill="none" fill-rule="evenodd">
        <path d="M14.556962,6.89473684 C14.556962,7.57061842 14.029962,8.11842105 13.3797468,8.11842105 L3.17721519,8.11842105 C2.527,8.11842105 2,7.57061842 2,6.89473684 C2,6.21885526 2.527,5.67105263 3.17721519,5.67105263 L13.3797468,5.67105263 C14.029962,5.67105263 14.556962,6.21885526 14.556962,6.89473684 Z M7.49367089,17.5 C7.49367089,18.1758816 6.96667089,18.7236842 6.3164557,18.7236842 L3.17721519,18.7236842 C2.527,18.7236842 2,18.1758816 2,17.5 C2,16.8241184 2.527,16.2763158 3.17721519,16.2763158 L6.3164557,16.2763158 C6.96667089,16.2763158 7.49367089,16.8241184 7.49367089,17.5 Z M18.4810127,28.1052632 C18.4810127,28.7811447 17.9540127,29.3289474 17.3037975,29.3289474 L3.17721519,29.3289474 C2.527,29.3289474 2,28.7811447 2,28.1052632 C2,27.4293816 2.527,26.8815789 3.17721519,26.8815789 L17.3037975,26.8815789 C17.9540127,26.8815789 18.4810127,27.4293816 18.4810127,28.1052632 Z M29.3137468,29.3289474 C28.7902785,31.4389868 26.9526456,33 24.7594937,33 C22.1590253,33 20.0506329,30.8083816 20.0506329,28.1052632 C20.0506329,25.4021447 22.1590253,23.2105263 24.7594937,23.2105263 C26.9526456,23.2105263 28.7902785,24.7715395 29.3137468,26.8815789 L31.8227848,26.8815789 C32.473,26.8815789 33,27.4293816 33,28.1052632 C33,28.7811447 32.473,29.3289474 31.8227848,29.3289474 L29.3137468,29.3289474 Z M22.4050633,28.1052632 C22.4050633,29.4566184 23.4594557,30.5526316 24.7594937,30.5526316 C26.0595316,30.5526316 27.1139241,29.4566184 27.1139241,28.1052632 C27.1139241,26.7539079 26.0595316,25.6578947 24.7594937,25.6578947 C23.4594557,25.6578947 22.4050633,26.7539079 22.4050633,28.1052632 Z M18.3264051,18.7236842 C17.8029367,20.8337237 15.9653038,22.3947368 13.7721519,22.3947368 C11.1716835,22.3947368 9.06329114,20.2031184 9.06329114,17.5 C9.06329114,14.7968816 11.1716835,12.6052632 13.7721519,12.6052632 C15.9653038,12.6052632 17.8029367,14.1662763 18.3264051,16.2763158 L31.8227848,16.2763158 C32.473,16.2763158 33,16.8241184 33,17.5 C33,18.1758816 32.473,18.7236842 31.8227848,18.7236842 L18.3264051,18.7236842 Z M11.4177215,17.5 C11.4177215,18.8513553 12.4721139,19.9473684 13.7721519,19.9473684 C15.0721899,19.9473684 16.1265823,18.8513553 16.1265823,17.5 C16.1265823,16.1486447 15.0721899,15.0526316 13.7721519,15.0526316 C12.4721139,15.0526316 11.4177215,16.1486447 11.4177215,17.5 Z M25.3896962,8.11842105 C24.8662278,10.2284605 23.0285949,11.7894737 20.835443,11.7894737 C18.2349747,11.7894737 16.1265823,9.59785526 16.1265823,6.89473684 C16.1265823,4.19161842 18.2349747,2 20.835443,2 C23.0285949,2 24.8662278,3.56101316 25.3896962,5.67105263 L31.8227848,5.67105263 C32.473,5.67105263 33,6.21885526 33,6.89473684 C33,7.57061842 32.473,8.11842105 31.8227848,8.11842105 L25.3896962,8.11842105 Z M18.4810127,6.89473684 C18.4810127,8.24609211 19.5354051,9.34210526 20.835443,9.34210526 C22.135481,9.34210526 23.1898734,8.24609211 23.1898734,6.89473684 C23.1898734,5.54338158 22.135481,4.44736842 20.835443,4.44736842 C19.5354051,4.44736842 18.4810127,5.54338158 18.4810127,6.89473684 Z" id="Preferences" fill="#D8D8D8"></path>
    </g>
</svg>