<?xml version="1.0" encoding="UTF-8"?>
<svg width="35px" height="35px" viewBox="0 0 35 35" version="1.1" xmlns="http://www.w3.org/2000/svg" xmlns:xlink="http://www.w3.org/1999/xlink">
    <!-- Generator: Sketch 49.3 (51167) - http://www.bohemiancoding.com/sketch -->
    <title>Glyph/Email</title>
    <desc>Created with Sketch.</desc>
    <defs>
        <path d="M30.5890682,8 L4.20658554,8 C2.93241635,8.05109493 1.94587543,9.00697537 2.00230501,10.1357742 L2.00230501,25.9252479 C1.99628058,27.049648 3.00659524,27.9717778 4.27546931,28 L30.5890682,28 C31.9205891,28 33,27.0437813 33,25.8642258 L33,10.1357742 C33,8.95621869 31.9205891,8 30.5890682,8 Z M6.13533101,10.0015256 L28.866974,10.0015256 C28.9947589,10.0005678 29.1091682,10.0715069 29.1519023,10.1781944 C29.1946363,10.284882 29.1562904,10.4038384 29.0564044,10.474447 L18.7031742,17.842868 C18.0008484,18.3484317 16.9945682,18.3484317 16.2922424,17.842868 L5.95278902,10.474447 C5.85387425,10.4045407 5.81519121,10.2871258 5.8561311,10.1810606 C5.897071,10.0749954 6.00880836,10.0031445 6.13533101,10.0015256 Z M31.1849127,25.3150267 C31.184914,25.605251 31.0545343,25.8835441 30.8225529,26.0884773 C30.5905714,26.2934105 30.2760626,26.4081333 29.9484491,26.4073227 L5.074521,26.4073227 C4.74690757,26.4081333 4.43239871,26.2934105 4.20041727,26.0884773 C3.96843582,25.8835441 3.83805611,25.605251 3.83805739,25.3150267 L3.83805739,12.2227307 C3.83918455,12.0384082 3.95959752,11.871009 4.14771519,11.7922418 C4.33583286,11.7134746 4.55828088,11.7373136 4.7197696,11.8535469 L15.2210998,19.4996186 C16.5514506,20.4702866 18.4715196,20.4702866 19.8018703,19.4996186 L30.3032005,11.8535469 C30.4646893,11.7373136 30.6871373,11.7134746 30.8752549,11.7922418 C31.0633726,11.871009 31.1837856,12.0384082 31.1849127,12.2227307 L31.1849127,25.3150267 Z" id="path-1"></path>
    </defs>
    <g id="Glyph/Email" stroke="none" stroke-width="1" fill="none" fill-rule="evenodd">
        <mask id="mask-2" fill="white">
            <use xlink:href="#path-1"></use>
        </mask>
        <use id="Shape" fill="#737373" fill-rule="nonzero" xlink:href="#path-1"></use>
        <g id="Color/White" mask="url(#mask-2)" fill="#FFFFFF">
            <rect id="Rectangle" x="0" y="0" width="35" height="35"></rect>
        </g>
    </g>
</svg>