<?xml version="1.0" encoding="UTF-8"?>
<svg width="35px" height="35px" viewBox="0 0 35 35" version="1.1" xmlns="http://www.w3.org/2000/svg" xmlns:xlink="http://www.w3.org/1999/xlink">
    <!-- Generator: Sketch 52.3 (67297) - http://www.bohemiancoding.com/sketch -->
    <title>Glyph/Consulta</title>
    <desc>Created with Sketch.</desc>
    <g id="Glyph/Consulta" stroke="none" stroke-width="1" fill="none" fill-rule="evenodd">
        <path d="M22.5,5.10257392 C23.1333927,5.10528689 23.6968727,5.51878757 23.908,6.13581192 L27,6.13581192 C28.1045695,6.13581192 29,7.06100474 29,8.20228793 L29,30.933524 C29,32.0748072 28.1045695,33 27,33 L9,33 C7.8954305,33 7,32.0748072 7,30.933524 L7,8.20228793 C7,7.06100474 7.8954305,6.13581192 9,6.13581192 L12.092,6.13581192 C12.3031273,5.51878757 12.8666073,5.10528689 13.5,5.10257392 L14.5355,5.10257392 C14.7828247,3.32204389 16.2590896,2 18,2 C19.7409104,2 21.2171753,3.32204389 21.4645,5.10257392 L22.5,5.10257392 Z M12.092,9.23552593 L10,9.23552593 L10,29.900286 L26,29.900286 L26,9.23552593 L23.908,9.23552593 C23.6968727,9.8525503 23.1333927,10.266051 22.5,10.2687639 L13.5,10.2687639 C12.8666073,10.266051 12.3031273,9.8525503 12.092,9.23552593 Z M13.5,6.13581192 C13.2238576,6.13581192 13,6.36711013 13,6.65243092 L13,8.71890693 C13,9.0042277 13.2238576,9.23552593 13.5,9.23552593 L22.5,9.23552593 C22.7761424,9.23552593 23,9.0042277 23,8.71890693 L23,6.65243092 C23,6.36711013 22.7761424,6.13581192 22.5,6.13581192 L21,6.13581192 C20.7238577,6.13581192 20.5,5.90451372 20.5,5.61919292 C20.5,4.19258894 19.3807119,3.03609791 18,3.03609791 C16.6192882,3.03609791 15.5,4.19258894 15.5,5.61919292 C15.5,5.90451372 15.2761424,6.13581192 15,6.13581192 L13.5,6.13581192 Z M28,8.20228793 C28,7.63164634 27.5522847,7.16904993 27,7.16904993 L24,7.16904993 L24,8.20228793 L26,8.20228793 C26.5522847,8.20228793 27,8.66488434 27,9.23552593 L27,29.900286 C27,30.4709276 26.5522847,30.933524 26,30.933524 L10,30.933524 C9.44771525,30.933524 9,30.4709276 9,29.900286 L9,9.23552593 C9,8.66488434 9.44771525,8.20228793 10,8.20228793 L12,8.20228793 L12,7.16904993 L9,7.16904993 C8.44771525,7.16904993 8,7.63164634 8,8.20228793 L8,30.933524 C8,31.5041656 8.44771525,31.966762 9,31.966762 L27,31.966762 C27.5522847,31.966762 28,31.5041656 28,30.933524 L28,8.20228793 Z M18,5.61919292 C17.8669824,5.62058835 17.7390192,5.56660722 17.6449566,5.46941822 C17.5508941,5.37222923 17.4986495,5.24001283 17.5,5.10257392 C17.50079,5.03506356 17.5143795,4.96836783 17.54,4.9062587 C17.5653645,4.84367584 17.6008737,4.78602115 17.645,4.73577443 C17.8455099,4.54461589 18.1544901,4.54461589 18.355,4.73577443 C18.3991263,4.78602115 18.4346355,4.84367584 18.46,4.9062587 C18.4880262,4.96755839 18.5017273,5.03480212 18.5,5.10257392 C18.5013505,5.24001283 18.4491059,5.37222923 18.3550434,5.46941822 C18.2609808,5.56660722 18.1330176,5.62058835 18,5.61919292 Z M12.5,13.8850969 C12.2238576,13.8850969 12,13.6537987 12,13.3684779 C12,13.0831572 12.2238576,12.8518589 12.5,12.8518589 L23.5,12.8518589 C23.7761424,12.8518589 24,13.0831572 24,13.3684779 C24,13.6537987 23.7761424,13.8850969 23.5,13.8850969 L12.5,13.8850969 Z M12.5,16.468192 C12.2238576,16.468192 12,16.2368937 12,15.951573 C12,15.6662522 12.2238576,15.4349539 12.5,15.4349539 L23.5,15.4349539 C23.7761424,15.4349539 24,15.6662522 24,15.951573 C24,16.2368937 23.7761424,16.468192 23.5,16.468192 L12.5,16.468192 Z M12.5,19.051287 C12.2238576,19.051287 12,18.8199887 12,18.534668 C12,18.2493472 12.2238576,18.018049 12.5,18.018049 L23.5,18.018049 C23.7761424,18.018049 24,18.2493472 24,18.534668 C24,18.8199887 23.7761424,19.051287 23.5,19.051287 L12.5,19.051287 Z M12.5,21.634382 C12.2238576,21.634382 12,21.4030837 12,21.117763 C12,20.8324422 12.2238576,20.601144 12.5,20.601144 L23.5,20.601144 C23.7761424,20.601144 24,20.8324422 24,21.117763 C24,21.4030837 23.7761424,21.634382 23.5,21.634382 L12.5,21.634382 Z M12.5,24.217477 C12.2238576,24.217477 12,23.9861787 12,23.700858 C12,23.4155372 12.2238576,23.184239 12.5,23.184239 L23.5,23.184239 C23.7761424,23.184239 24,23.4155372 24,23.700858 C24,23.9861787 23.7761424,24.217477 23.5,24.217477 L12.5,24.217477 Z M12.5,26.800572 C12.2238576,26.800572 12,26.5692738 12,26.283953 C12,25.9986322 12.2238576,25.767334 12.5,25.767334 L17.5,25.767334 C17.7761424,25.767334 18,25.9986322 18,26.283953 C18,26.5692738 17.7761424,26.800572 17.5,26.800572 L12.5,26.800572 Z" id="Tasks" fill="#FFFFFF"></path>
    </g>
</svg>