<?xml version="1.0" encoding="UTF-8"?>
<svg width="35px" height="35px" viewBox="0 0 35 35" version="1.1" xmlns="http://www.w3.org/2000/svg" xmlns:xlink="http://www.w3.org/1999/xlink">
    <!-- Generator: Sketch 52.3 (67297) - http://www.bohemiancoding.com/sketch -->
    <title>Glyph/Alert</title>
    <desc>Created with Sketch.</desc>
    <g id="Glyph/Alert" stroke="none" stroke-width="1" fill="none" fill-rule="evenodd">
        <path d="M31.6408238,23.0114231 L29.0409111,20.3354615 L29.0409111,15.3761538 C29.0409111,10.4308077 26.1223403,6.181 21.7476495,4.46288462 C21.3087032,2.48288462 19.5706447,1 17.5,1 C15.4293553,1 13.6917188,2.48288462 13.2523505,4.46288462 C8.87765973,6.181 5.95908892,10.4303846 5.95908892,15.3761538 L5.95908892,20.3358846 L3.35917625,23.0118462 C3.12872944,23.2487692 3,23.5665 3,23.8973462 L3,27.6754231 C3,28.3540385 3.54910493,28.9044615 4.22609518,28.9044615 L12.4061126,28.9044615 C12.4124436,31.6201923 14.7899287,34 17.5,34 C20.2100713,34 22.5875564,31.6201923 22.5938874,28.9044615 L30.7739048,28.9044615 C31.4508951,28.9044615 32,28.3540385 32,27.6754231 L32,23.8973462 C32,23.5660769 31.8712706,23.2483462 31.6408238,23.0114231 Z M17.5,31.5419231 C16.0510552,31.5419231 14.8654781,30.1728462 14.8587251,28.9044615 L20.141697,28.9044615 C20.134944,30.1724231 18.9493669,31.5419231 17.5,31.5419231 Z M29.5478096,26.4459615 L5.45261243,26.4459615 L5.45261243,24.3800769 L8.41170135,21.3347692 C8.41170135,18.4210385 8.41170135,15.9054231 8.41170135,15.3757308 C8.41170135,10.8949231 11.3707903,7.21330769 15.5977587,6.31680769 C15.5977587,5.85946154 15.5977587,5.53284615 15.5977587,5.44442308 C15.5977587,4.38503846 16.4431524,3.45807692 17.5,3.45807692 C18.5568476,3.45807692 19.4022413,4.38503846 19.4022413,5.44442308 C19.4022413,5.53284615 19.4022413,5.85946154 19.4022413,6.31680769 C23.6296318,7.21373077 26.5887207,10.8953462 26.5887207,15.3761538 C26.5887207,16.0382692 26.5887207,18.4214615 26.5887207,21.3351923 L29.5478096,24.3805 L29.5478096,26.4459615 Z" id="Notification" fill="#D8D8D8"></path>
    </g>
</svg>