<?xml version="1.0" encoding="UTF-8"?>
<svg width="35px" height="35px" viewBox="0 0 35 35" version="1.1" xmlns="http://www.w3.org/2000/svg" xmlns:xlink="http://www.w3.org/1999/xlink">
    <!-- Generator: Sketch 49.3 (51167) - http://www.bohemiancoding.com/sketch -->
    <title>Glyph/Lock</title>
    <desc>Created with Sketch.</desc>
    <defs>
        <path d="M10.3470676,12.6328695 L10.3470676,9.83737074 C10.3470676,9.5722066 10.3767883,9.14589701 10.4641344,8.60894834 C10.6088447,7.71936044 10.8698469,6.82798458 11.2807699,5.98595287 C12.4799975,3.52858823 14.684025,2.01967099 17.9776744,2.01279539 C17.9991973,2.01136988 18.0241926,2.00992845 18.0525384,2.00856022 C19.1458108,1.95578889 20.4695815,2.13936079 21.769875,2.77304772 C24.1062711,3.9116704 25.5547136,6.18794316 25.6529324,9.73643518 L25.6529324,12.6328695 L26.9543515,12.6328695 C29.1885683,12.6328695 31,14.4588224 31,16.7113944 L31,28.9209548 C31,31.173939 29.1886754,33 26.9543515,33 L9.04461645,33 C6.81089608,33 5,31.173507 5,28.9209548 L5,16.7113944 C5,14.4588863 6.81085235,12.6328695 9.04461645,12.6328695 L10.3470676,12.6328695 Z M12.411174,12.6328695 L23.5888395,12.6328695 L23.589231,9.76558335 C23.512928,7.02020048 22.5110863,5.44577474 20.8716134,4.64679163 C20.3386891,4.38707553 19.760252,4.22395187 19.1694743,4.14202667 C18.7665603,4.08615318 18.4152626,4.07458088 18.1512423,4.08732492 C18.1328209,4.0882141 18.0871181,4.09041518 18.0141339,4.09392816 C15.5189139,4.09001584 14.0017744,5.1241692 13.1328204,6.90476259 C12.8195283,7.54673657 12.6149637,8.24536681 12.5010258,8.94578501 C12.4611042,9.19119768 12.4355763,9.41787312 12.4215661,9.61883327 C12.4136186,9.73283089 12.411174,9.80797279 12.411174,9.83737074 L12.411174,12.6328695 Z M28.9358936,28.9209548 L28.9358936,16.7113944 C28.9358936,15.6083176 28.0487031,14.714015 26.9543515,14.714015 L9.04461645,14.714015 C7.9508815,14.714015 7.06410638,15.6082162 7.06410638,16.7113944 L7.06410638,28.9209548 C7.06410638,30.0242873 7.95103457,30.9188545 9.04461645,30.9188545 L26.9543515,30.9188545 C28.0487556,30.9188545 28.9358936,30.0244989 28.9358936,28.9209548 Z M16.9605646,23.8991136 L16.9764686,19.6507268 C16.97862,19.0760385 17.4424267,18.6119199 18.0124098,18.6140891 C18.582393,18.6162582 19.0427116,19.0838936 19.0405603,19.658582 L19.0247194,23.8900892 C19.5730925,24.2352584 19.9379379,24.8491598 19.9379379,25.5489788 C19.9379379,26.6282512 19.070178,27.5031744 17.999742,27.5031744 C16.929306,27.5031744 16.0615461,26.6282512 16.0615461,25.5489788 C16.0615461,24.8552179 16.4201021,24.2458936 16.9605646,23.8991136 Z" id="path-1"></path>
    </defs>
    <g id="Glyph/Lock" stroke="none" stroke-width="1" fill="none" fill-rule="evenodd">
        <mask id="mask-2" fill="white">
            <use xlink:href="#path-1"></use>
        </mask>
        <use id="Lock" fill="#000000" fill-rule="nonzero" xlink:href="#path-1"></use>
        <g id="Color/White" mask="url(#mask-2)" fill="#FFFFFF">
            <rect id="Rectangle" x="0" y="0" width="35" height="35"></rect>
        </g>
    </g>
</svg>