<?xml version="1.0" encoding="UTF-8"?>
<svg width="35px" height="35px" viewBox="0 0 35 35" version="1.1" xmlns="http://www.w3.org/2000/svg" xmlns:xlink="http://www.w3.org/1999/xlink">
    <!-- Generator: Sketch 52.3 (67297) - http://www.bohemiancoding.com/sketch -->
    <title>Glyph/Search</title>
    <desc>Created with Sketch.</desc>
    <g id="Glyph/Search" stroke="none" stroke-width="1" fill="none" fill-rule="evenodd">
        <path d="M16.375,7.17647058 C11.8912752,7.17647058 8.24999999,10.735364 8.24999999,15.117647 C8.24999999,19.4999302 11.8912752,23.0588235 16.375,23.0588235 C20.8587248,23.0588235 24.5,19.4999302 24.5,15.117647 C24.5,10.735364 20.8587248,7.17647058 16.375,7.17647058 Z M24.7465492,22.641926 L30.5240485,28.2887127 C31.1586505,28.9089572 31.1586505,29.9145722 30.5240485,30.5348166 C29.8894465,31.1550611 28.8605534,31.1550611 28.2259514,30.5348166 L22.2140904,24.6589706 C20.506815,25.6597711 18.5092105,26.2352941 16.375,26.2352941 C10.0963498,26.2352941 5,21.2542463 5,15.117647 C5,8.98104774 10.0963498,4 16.375,4 C22.6536501,4 27.75,8.98104774 27.75,15.117647 C27.75,18.0187272 26.6110016,20.6615494 24.7465492,22.641926 Z" id="Search" fill="#D8D8D8"></path>
    </g>
</svg>