<?xml version="1.0" encoding="UTF-8"?>
<svg width="35px" height="35px" viewBox="0 0 35 35" version="1.1" xmlns="http://www.w3.org/2000/svg" xmlns:xlink="http://www.w3.org/1999/xlink">
    <!-- Generator: Sketch 52.3 (67297) - http://www.bohemiancoding.com/sketch -->
    <title>Glyph/Calendario</title>
    <desc>Created with Sketch.</desc>
    <g id="Glyph/Calendario" stroke="none" stroke-width="1" fill="none" fill-rule="evenodd">
        <path d="M25.4891004,24.8938346 L28.7850667,12.9677608 L9.62287509,12.9677608 L6.23504122,25.2251875 C6.19921864,25.3546313 6.21221877,25.4615759 6.27375272,25.5436836 C6.36186471,25.6608552 6.54762212,25.7309828 6.77093547,25.7309828 L24.2419546,25.7309828 C24.7735155,25.7309828 25.3677658,25.3318399 25.4891004,24.8938346 Z M16.4358099,23.1234051 L11.8502307,18.7334177 L13.5905148,16.8738677 L16.3904539,19.5547872 L21.1617905,14.7460797 L22.9485861,16.5597546 L16.4358099,23.1234051 Z M24.2419546,26.9611376 L9.95423396,26.9611376 L9.95423396,27.8467907 C9.95423396,28.3555079 10.3635936,28.7692607 10.8662653,28.7692607 L28.8714453,28.7692607 C29.3744059,28.7692607 29.7834767,28.3555079 29.7834767,27.8467907 L29.7834767,13.9235414 L26.6605565,25.2251875 C26.3913094,26.1985 25.3290543,26.9611376 24.2419546,26.9611376 Z M13.4492467,10.0717834 L13.8430062,10.0717834 C14.3557891,10.0717834 14.7729488,9.64984903 14.7729488,9.13119704 L14.7729488,6.94058634 C14.7729488,6.42193435 14.3557891,6 13.8430062,6 L13.4492467,6 C12.9364638,6 12.5193041,6.42193435 12.5193041,6.94058634 L12.5193041,9.13119704 C12.5193041,9.64984903 12.9364638,10.0717834 13.4492467,10.0717834 Z M23.9501739,10.0717834 C23.4376799,10.0717834 23.0205202,9.64984903 23.0202313,9.13119704 L23.0202313,6.94058634 C23.0202313,6.42193435 23.437391,6 23.9501739,6 L24.3439334,6 C24.8567163,6 25.273876,6.42193435 25.273876,6.94058634 L25.273876,9.13119704 C25.273876,9.64984903 24.8567163,10.0717834 24.3439334,10.0717834 L23.9501739,10.0717834 Z M28.8717342,8.6029025 C30.0455015,8.6029025 31.0002888,9.5686179 30.9999999,10.7558196 L30.9999999,27.8470829 C30.9999999,29.0342846 30.0452126,30 28.8714453,30 L10.8662653,30 C9.69249801,30 8.73771069,29.0342846 8.73771069,27.8470829 L8.73771069,26.9614298 L6.77093547,26.9614298 C6.16050714,26.9614298 5.62605736,26.715691 5.3048097,26.2873283 C5.01389568,25.8995812 4.92607258,25.3917405 5.06358506,24.8938346 L8.73771069,11.5988117 L8.73771069,10.7558196 C8.73771069,9.5686179 9.69249801,8.6029025 10.8662653,8.6029025 L11.8193193,8.6029025 L11.8193193,8.85536184 L11.8193193,9.13119704 C11.8193193,9.24749196 11.8320305,9.36086491 11.854853,9.47043927 C12.0102767,10.2170059 12.6657722,10.7794877 13.4492467,10.7794877 L13.8430062,10.7794877 C14.6267696,10.7794877 15.282265,10.2170059 15.4373999,9.47043927 C15.4602223,9.36086491 15.4729336,9.24749196 15.4729336,9.13119704 L15.4729336,8.85536184 L15.4729336,8.6029025 L22.3202465,8.6029025 L22.3202465,8.85536184 L22.3202465,9.13119704 C22.3202465,9.24749196 22.3329577,9.36086491 22.3557802,9.47043927 C22.511204,10.2170059 23.1666994,10.7794877 23.9501739,10.7794877 L24.3439334,10.7794877 C25.1276968,10.7794877 25.7831922,10.2170059 25.9383271,9.47043927 C25.9611496,9.36086491 25.9738608,9.24749196 25.9738608,9.13119704 L25.9738608,8.85536184 L25.9738608,8.6029025 L28.8717342,8.6029025 Z" id="Combined-Shape" fill="#FFFFFF"></path>
    </g>
</svg>