<?xml version="1.0" encoding="UTF-8"?>
<svg width="32px" height="22px" viewBox="0 0 32 22" version="1.1" xmlns="http://www.w3.org/2000/svg" xmlns:xlink="http://www.w3.org/1999/xlink">
    <!-- Generator: Sketch 52.3 (67297) - http://www.bohemiancoding.com/sketch -->
    <title>glyph-hamburger</title>
    <desc>Created with Sketch.</desc>
    <g id="Symbols" stroke="none" stroke-width="1" fill="none" fill-rule="evenodd">
        <g id="Header" transform="translate(-325.000000, -18.000000)" fill="#FFFFFF">
            <g id="Glyph/Hamburger" transform="translate(325.000000, 16.000000)">
                <path d="M3.17714298,2.97142869 C1.92740465,2.97142869 0.914285751,3.78775419 0.914285751,4.79480483 C0.914285751,5.8017947 1.92740465,6.61818098 3.17714298,6.61818098 L28.8228583,6.61818098 C30.0725966,6.61818098 31.0857155,5.8017947 31.0857155,4.79480483 C31.0857155,3.78775419 30.0725966,2.97142869 28.8228583,2.97142869 L3.17714298,2.97142869 Z M3.17714298,11.1766213 C1.92740465,11.1766213 0.914285751,11.9929468 0.914285751,13.0000036 C0.914285751,14.0069934 1.92740465,14.8233797 3.17714298,14.8233797 L28.8228583,14.8233797 C30.0725966,14.8233797 31.0857155,14.0069934 31.0857155,13.0000036 C31.0857155,11.9929468 30.0725966,11.1766213 28.8228583,11.1766213 L3.17714298,11.1766213 Z M3.17714298,19.3818201 C1.92740465,19.3818201 0.914285751,20.1981456 0.914285751,21.2051962 C0.914285751,22.2121861 1.92740465,23.0285723 3.17714298,23.0285723 L28.8228583,23.0285723 C30.0725966,23.0285723 31.0857155,22.2121861 31.0857155,21.2051962 C31.0857155,20.1981456 30.0725966,19.3818201 28.8228583,19.3818201 L3.17714298,19.3818201 Z" id="Hamburger-menu"></path>
            </g>
        </g>
    </g>
</svg>