<?xml version="1.0" encoding="UTF-8"?>
<svg width="35px" height="35px" viewBox="0 0 35 35" version="1.1" xmlns="http://www.w3.org/2000/svg" xmlns:xlink="http://www.w3.org/1999/xlink">
    <!-- Generator: Sketch 52.3 (67297) - http://www.bohemiancoding.com/sketch -->
    <title>Glyph/Chevron Left</title>
    <desc>Created with Sketch.</desc>
    <g id="Glyph/Chevron-Left" stroke="none" stroke-width="1" fill="none" fill-rule="evenodd">
        <path d="M30,17.5205517 C30,16.6327435 29.3071162,15.9130327 28.4524007,15.9130327 L11.4791057,15.9130327 L17.7700967,9.82053592 C18.197321,9.43460426 18.3875491,8.83714566 18.2660956,8.26272793 C18.1446421,7.68831021 17.7308962,7.22863455 17.1872984,7.06417391 C16.6437005,6.89971328 16.0570318,7.05672248 15.6576237,7.47355825 L6.49196703,16.3430441 C6.17817328,16.6470836 6,17.072808 6,17.5185423 C6,17.9642765 6.17817328,18.3900009 6.49196703,18.6940405 L15.6576237,27.5675451 C16.2826344,28.1734742 17.2621989,28.1383883 17.8455422,27.4891786 C18.4288855,26.8399688 18.3951074,25.8224777 17.7700967,25.2165486 L11.4791057,19.1280706 L28.4524007,19.1280706 C29.3071162,19.1280706 30,18.4083599 30,17.5205517 Z" id="Path" fill="#11686E"></path>
    </g>
</svg>