<?xml version="1.0" encoding="UTF-8"?>
<svg width="37px" height="37px" viewBox="0 0 37 37" version="1.1" xmlns="http://www.w3.org/2000/svg" xmlns:xlink="http://www.w3.org/1999/xlink">
    <!-- Generator: Sketch 52.3 (67297) - http://www.bohemiancoding.com/sketch -->
    <title>VillaFeet Isotipo</title>
    <desc>Created with Sketch.</desc>
    <defs>
        <linearGradient x1="58.587859%" y1="33.9517095%" x2="12.2505009%" y2="96.2404899%" id="linearGradient-1">
            <stop stop-color="#31BBAC" offset="0%"></stop>
            <stop stop-color="#23958A" offset="100%"></stop>
        </linearGradient>
        <linearGradient x1="22.8029927%" y1="27.9467716%" x2="8.05368502%" y2="0%" id="linearGradient-2">
            <stop stop-color="#31BBAC" offset="0%"></stop>
            <stop stop-color="#23958A" offset="100%"></stop>
        </linearGradient>
    </defs>
    <g id="Symbols" stroke="none" stroke-width="1" fill="none" fill-rule="evenodd">
        <g id="Header" transform="translate(-20.000000, -11.000000)">
            <g id="VillaFeet-Isotipo" transform="translate(20.000000, 11.000000)">
                <g>
                    <path d="M22.0090185,0 C22.0583923,2.02287909 22.0827719,4.04975991 22.1135024,6.08264335 C22.1300969,7.09908506 22.0665871,8.28560069 22.6543602,9.17778841 C23.4246728,10.3444954 25.1865579,10.7446693 26.2008711,11.6890797 C29.0321796,14.3282266 24.6067748,17.1554553 23.7075987,19.5084778 C22.697383,22.1516265 23.8753876,24.9248316 22.4863665,27.5439698 C22.0153695,28.4343568 21.4988913,29.0866402 20.9254592,29.6088672 L23.0335752,36.7739809 C23.8712902,36.7539722 24.6006287,36.4698488 25.2092985,35.9214104 C25.8441918,35.3553644 26.2559812,34.611041 26.4506081,33.6866393 L36.7844742,0 L22.0090185,0 Z" id="Fill-56" fill="url(#linearGradient-1)"></path>
                    <path d="M0,0 L10.3398074,33.6866393 C10.5282881,34.611041 10.9419214,35.3553644 11.5749708,35.9214104 C12.2141663,36.4936591 12.9762841,36.7779827 13.8656264,36.7779827 L22.9229452,36.7779827 C22.9577732,36.7779827 22.9966986,36.7779827 23.0335752,36.7739809 L20.9254592,29.6088672 C19.9851042,30.4672402 18.8849503,30.9774619 17.553293,31.605735 C16.6477659,32.0319202 15.7850568,32.7942515 14.70539,32.6501889 C13.3593917,32.4721115 12.755229,31.6637602 13.660756,30.761368 C14.082789,30.3411854 14.6789617,30.2129297 15.1499587,29.6768967 C15.5045893,29.2727211 15.8403718,28.8125211 16.1335413,28.3623255 C16.9999381,27.0337481 17.1167142,26.1693725 16.6578046,24.6827264 C15.8342257,22.0013612 14.8119226,19.5244848 14.1850193,16.7712883 C13.5294341,13.8920371 13.4067167,10.9987798 13.2448692,8.05550069 C13.2796971,5.91056857 12.71405,2.77120429 12.0996438,0 L0,0 Z" id="Fill-59" fill="url(#linearGradient-2)"></path>
                </g>
            </g>
        </g>
    </g>
</svg>