<?xml version="1.0" encoding="UTF-8"?>
<svg width="426px" height="339px" viewBox="0 0 426 339" version="1.1" xmlns="http://www.w3.org/2000/svg" xmlns:xlink="http://www.w3.org/1999/xlink">
    <!-- Generator: Sketch 49.3 (51167) - http://www.bohemiancoding.com/sketch -->
    <title>VillaFeet Logo</title>
    <desc>Created with Sketch.</desc>
    <defs>
        <polygon id="path-1" points="0 337.672 425.829 337.672 425.829 1 0 1"></polygon>
        <linearGradient x1="58.587859%" y1="33.9517095%" x2="12.2505009%" y2="96.2404899%" id="linearGradient-3">
            <stop stop-color="#31BBAC" offset="0%"></stop>
            <stop stop-color="#23958A" offset="100%"></stop>
        </linearGradient>
        <linearGradient x1="22.8029927%" y1="27.9467716%" x2="8.05368502%" y2="0%" id="linearGradient-4">
            <stop stop-color="#31BBAC" offset="0%"></stop>
            <stop stop-color="#23958A" offset="100%"></stop>
        </linearGradient>
    </defs>
    <g id="VillaFeet-Logo" stroke="none" stroke-width="1" fill="none" fill-rule="evenodd">
        <g>
            <mask id="mask-2" fill="white">
                <use xlink:href="#path-1"></use>
            </mask>
            <g id="Clip-10"></g>
            <g id="Tagline" mask="url(#mask-2)" fill="#FFFFFF">
                <g transform="translate(0.000000, 314.672000)">
                    <path d="M35.0748,18.3242 C34.3378,18.2672 33.6968,18.2002 33.1518,18.1202 L33.1518,17.0862 C33.7128,17.1662 34.3418,17.2382 35.0388,17.3032 C35.7358,17.3662 36.3168,17.3982 36.7818,17.3982 C37.4388,17.3982 37.9718,17.3502 38.3808,17.2542 C38.7898,17.1582 39.1458,16.9902 39.4498,16.7492 C39.7388,16.5252 39.9278,16.1772 40.0148,15.7042 C40.1028,15.2312 40.1468,14.5942 40.1468,13.7932 C40.1468,12.7342 40.1108,12.0102 40.0398,11.6172 C39.9678,11.2242 39.7988,10.9482 39.5348,10.7882 C39.2698,10.6282 38.7768,10.4912 38.0558,10.3792 L34.9788,9.8982 C34.3058,9.8022 33.8128,9.5902 33.5008,9.2612 C33.1878,8.9322 32.9918,8.5192 32.9118,8.0232 C32.8308,7.5262 32.7918,6.8132 32.7918,5.8842 C32.7918,4.2972 33.1198,3.1672 33.7768,2.4942 C34.4338,1.8212 35.5478,1.4842 37.1188,1.4842 C37.8068,1.4842 38.4768,1.5122 39.1258,1.5682 C39.7748,1.6252 40.2838,1.7092 40.6518,1.8212 L40.6518,2.7822 C40.1868,2.7022 39.6458,2.6352 39.0298,2.5782 C38.4128,2.5222 37.8468,2.4942 37.3348,2.4942 C36.5658,2.4942 35.9568,2.5622 35.5078,2.6982 C35.0588,2.8352 34.7218,3.0472 34.4978,3.3352 C34.2578,3.6082 34.0968,3.9482 34.0168,4.3572 C33.9368,4.7652 33.8968,5.2912 33.8968,5.9312 C33.8968,6.7642 33.9368,7.3702 34.0168,7.7472 C34.0968,8.1232 34.2458,8.3872 34.4628,8.5402 C34.6788,8.6922 35.0348,8.8082 35.5318,8.8882 L38.3918,9.3212 C39.1778,9.4492 39.7708,9.6222 40.1718,9.8382 C40.5718,10.0542 40.8688,10.4432 41.0608,11.0042 C41.1408,11.2442 41.1928,11.5652 41.2178,11.9662 C41.2408,12.3662 41.2538,12.9272 41.2538,13.6482 C41.2538,14.8352 41.1288,15.7672 40.8808,16.4492 C40.6328,17.1302 40.2118,17.6272 39.6188,17.9392 C39.0248,18.2522 38.1918,18.4082 37.1188,18.4082 C36.4938,18.4082 35.8118,18.3802 35.0748,18.3242" id="Fill-1"></path>
                    <path d="M46.2173,7.0371 C45.8083,7.2621 45.5393,7.6941 45.4113,8.3361 C45.2823,8.9761 45.2193,10.0421 45.2193,11.5331 L50.8933,11.5331 L50.8933,11.1001 C50.8933,9.7701 50.8163,8.8011 50.6643,8.1911 C50.5123,7.5821 50.2553,7.1821 49.8953,6.9891 C49.5343,6.7971 48.9773,6.7011 48.2243,6.7011 C47.2943,6.7011 46.6253,6.8131 46.2173,7.0371 Z M51.9503,12.4461 L45.2193,12.4461 C45.2193,13.9211 45.2873,14.9941 45.4233,15.6681 C45.5603,16.3411 45.8523,16.8091 46.3013,17.0741 C46.7493,17.3381 47.4713,17.4711 48.4643,17.4711 C48.9463,17.4711 49.4783,17.4381 50.0633,17.3741 C50.6483,17.3101 51.1563,17.2301 51.5893,17.1341 L51.5893,18.0961 C51.2213,18.1761 50.7283,18.2481 50.1113,18.3111 C49.4943,18.3761 48.8973,18.4081 48.3213,18.4081 C47.0863,18.4081 46.1813,18.2311 45.6043,17.8791 C45.0273,17.5271 44.6423,16.9221 44.4493,16.0641 C44.2573,15.2071 44.1613,13.8891 44.1613,12.1091 C44.1613,10.2991 44.2383,8.9841 44.3903,8.1671 C44.5423,7.3491 44.9033,6.7451 45.4723,6.3521 C46.0403,5.9601 46.9743,5.7641 48.2723,5.7641 C49.4263,5.7641 50.2553,5.9481 50.7603,6.3161 C51.2653,6.6851 51.5893,7.2821 51.7343,8.1071 C51.8783,8.9331 51.9503,10.2511 51.9503,12.0611 L51.9503,12.4461 Z" id="Fill-3"></path>
                    <path d="M55.4127,5.9561 L56.2537,5.9561 L56.3497,8.3591 L56.4707,8.3591 C56.6787,7.3661 57.0557,6.6851 57.6007,6.3161 C58.1437,5.9481 58.8657,5.7641 59.7637,5.7641 L59.7637,6.8451 C58.8817,6.8451 58.2007,7.0421 57.7207,7.4351 C57.2387,7.8271 56.9107,8.3951 56.7337,9.1411 C56.5587,9.8861 56.4707,10.8681 56.4707,12.0861 L56.4707,18.2161 L55.4127,18.2161 L55.4127,5.9561 Z" id="Fill-5"></path>
                    <polygon id="Fill-7" points="64.9556 18.2158 61.2536 5.9558 62.3836 5.9558 65.4606 16.5568 65.5806 16.5568 68.6816 5.9558 69.7636 5.9558 66.0606 18.2158"></polygon>
                    <path d="M72.504,18.216 L73.562,18.216 L73.562,5.956 L72.504,5.956 L72.504,18.216 Z M72.432,1.965 L73.61,1.965 L73.61,0.355 L72.432,0.355 L72.432,1.965 Z" id="Fill-9"></path>
                    <path d="M82.192,18.3242 C81.726,18.3802 81.278,18.4082 80.845,18.4082 C79.691,18.4082 78.841,18.2042 78.297,17.7952 C77.753,17.3872 77.399,16.7622 77.24,15.9202 C77.079,15.0792 76.999,13.8082 76.999,12.1092 C76.999,10.3792 77.099,9.0682 77.299,8.1792 C77.5,7.2902 77.865,6.6652 78.393,6.3042 C78.922,5.9432 79.715,5.7632 80.773,5.7632 C81.173,5.7632 81.611,5.7872 82.084,5.8362 C82.556,5.8842 82.945,5.9482 83.25,6.0272 L83.25,6.9892 C82.48,6.7972 81.718,6.7012 80.965,6.7012 C80.116,6.7012 79.491,6.8452 79.09,7.1342 C78.69,7.4222 78.418,7.9302 78.273,8.6602 C78.129,9.3892 78.057,10.5232 78.057,12.0612 C78.057,13.6482 78.129,14.8102 78.273,15.5482 C78.418,16.2852 78.69,16.7902 79.09,17.0612 C79.491,17.3352 80.132,17.4702 81.013,17.4702 C81.398,17.4702 81.807,17.4422 82.24,17.3872 C82.672,17.3302 83.033,17.2542 83.322,17.1582 L83.322,18.1202 C83.033,18.2002 82.656,18.2672 82.192,18.3242" id="Fill-11"></path>
                    <path d="M86.399,18.216 L87.457,18.216 L87.457,5.956 L86.399,5.956 L86.399,18.216 Z M86.327,1.965 L87.505,1.965 L87.505,0.355 L86.327,0.355 L86.327,1.965 Z" id="Fill-12"></path>
                    <path d="M97.0005,17.086 C97.4005,16.83 97.6525,16.361 97.7575,15.68 C97.8605,14.999 97.9135,13.809 97.9135,12.109 C97.9135,10.396 97.8605,9.197 97.7575,8.516 C97.6525,7.835 97.4005,7.362 97.0005,7.098 C96.5995,6.833 95.9095,6.701 94.9325,6.701 C93.9545,6.701 93.2655,6.833 92.8645,7.098 C92.4645,7.362 92.2125,7.835 92.1075,8.516 C92.0035,9.197 91.9515,10.396 91.9515,12.109 C91.9515,13.809 92.0035,14.999 92.1075,15.68 C92.2125,16.361 92.4645,16.83 92.8645,17.086 C93.2655,17.343 93.9545,17.471 94.9325,17.471 C95.9095,17.471 96.5995,17.343 97.0005,17.086 M92.2045,17.915 C91.6505,17.587 91.2945,17.01 91.1345,16.185 C90.9745,15.359 90.8945,14.001 90.8945,12.109 C90.8945,10.219 90.9745,8.857 91.1345,8.023 C91.2945,7.19 91.6505,6.605 92.2045,6.269 C92.7575,5.932 93.6665,5.764 94.9325,5.764 C96.1985,5.764 97.1075,5.932 97.6605,6.269 C98.2145,6.605 98.5705,7.19 98.7305,8.023 C98.8915,8.857 98.9715,10.219 98.9715,12.109 C98.9715,14.001 98.8915,15.359 98.7305,16.185 C98.5705,17.01 98.2145,17.587 97.6605,17.915 C97.1075,18.243 96.1985,18.408 94.9325,18.408 C93.6665,18.408 92.7575,18.243 92.2045,17.915" id="Fill-13"></path>
                    <path d="M113.3345,17.0742 C113.7275,16.8252 113.9905,16.3452 114.1275,15.6322 C114.2635,14.9192 114.3315,13.7362 114.3315,12.0862 C114.3315,10.4352 114.2635,9.2532 114.1275,8.5402 C113.9905,7.8272 113.7275,7.3462 113.3345,7.0972 C112.9405,6.8492 112.2965,6.7242 111.3985,6.7242 C110.6465,6.7242 110.0565,6.8732 109.6325,7.1702 C109.2075,7.4672 108.9145,7.9432 108.7545,8.5992 C108.6425,9.0332 108.5745,9.4982 108.5505,9.9942 C108.5255,10.4912 108.5145,11.1882 108.5145,12.0862 C108.5145,13.7202 108.5785,14.8102 108.7065,15.3552 C108.8985,16.1082 109.2075,16.6452 109.6325,16.9662 C110.0565,17.2862 110.6465,17.4462 111.3985,17.4462 C112.2965,17.4462 112.9405,17.3222 113.3345,17.0742 Z M107.4565,5.9562 L108.3215,5.9562 L108.3945,7.7822 L108.5145,7.7822 C108.7385,6.9812 109.1155,6.4442 109.6445,6.1722 C110.1735,5.8992 110.8545,5.7632 111.6885,5.7632 C112.7295,5.7632 113.5105,5.9352 114.0315,6.2802 C114.5525,6.6252 114.9085,7.2382 115.1015,8.1192 C115.2935,9.0012 115.3895,10.3232 115.3895,12.0862 C115.3895,13.8482 115.2935,15.1712 115.1015,16.0532 C114.9085,16.9332 114.5565,17.5472 114.0435,17.8912 C113.5305,18.2352 112.7455,18.4082 111.6885,18.4082 C110.8375,18.4082 110.1645,18.2672 109.6685,17.9872 C109.1715,17.7072 108.8185,17.2462 108.6105,16.6052 L108.5145,16.6052 L108.5145,22.8552 L107.4565,22.8552 L107.4565,5.9562 Z" id="Fill-14"></path>
                    <path d="M124.525,17.086 C124.925,16.83 125.177,16.361 125.282,15.68 C125.385,14.999 125.438,13.809 125.438,12.109 C125.438,10.396 125.385,9.197 125.282,8.516 C125.177,7.835 124.925,7.362 124.525,7.098 C124.124,6.833 123.434,6.701 122.457,6.701 C121.479,6.701 120.79,6.833 120.389,7.098 C119.989,7.362 119.737,7.835 119.632,8.516 C119.528,9.197 119.476,10.396 119.476,12.109 C119.476,13.809 119.528,14.999 119.632,15.68 C119.737,16.361 119.989,16.83 120.389,17.086 C120.79,17.343 121.479,17.471 122.457,17.471 C123.434,17.471 124.124,17.343 124.525,17.086 M119.729,17.915 C119.175,17.587 118.819,17.01 118.659,16.185 C118.499,15.359 118.419,14.001 118.419,12.109 C118.419,10.219 118.499,8.857 118.659,8.023 C118.819,7.19 119.175,6.605 119.729,6.269 C120.282,5.932 121.191,5.764 122.457,5.764 C123.723,5.764 124.632,5.932 125.185,6.269 C125.739,6.605 126.095,7.19 126.255,8.023 C126.416,8.857 126.496,10.219 126.496,12.109 C126.496,14.001 126.416,15.359 126.255,16.185 C126.095,17.01 125.739,17.587 125.185,17.915 C124.632,18.243 123.723,18.408 122.457,18.408 C121.191,18.408 120.282,18.243 119.729,17.915" id="Fill-15"></path>
                    <path d="M135.2574,17.0254 C135.6824,16.7464 135.9674,16.3084 136.1114,15.7154 C136.2384,15.2184 136.3194,14.6864 136.3514,14.1174 C136.3834,13.5484 136.4004,12.7754 136.4004,11.7964 C136.4004,10.4354 136.3194,9.4014 136.1594,8.6964 C135.9984,7.9914 135.6984,7.4864 135.2574,7.1814 C134.8174,6.8774 134.2034,6.7244 133.4184,6.7244 C132.5534,6.7244 131.9324,6.8494 131.5564,7.0974 C131.1794,7.3464 130.9224,7.8314 130.7864,8.5514 C130.6504,9.2734 130.5824,10.4514 130.5824,12.0864 C130.5824,13.7364 130.6504,14.9194 130.7864,15.6314 C130.9224,16.3444 131.1874,16.8254 131.5794,17.0744 C131.9724,17.3224 132.6164,17.4464 133.5154,17.4464 C134.2514,17.4464 134.8324,17.3064 135.2574,17.0254 M130.8824,17.8914 C130.3614,17.5464 130.0054,16.9334 129.8134,16.0524 C129.6204,15.1714 129.5244,13.8484 129.5244,12.0864 C129.5244,10.3234 129.6204,9.0014 129.8134,8.1194 C130.0054,7.2384 130.3584,6.6254 130.8704,6.2804 C131.3834,5.9354 132.1684,5.7634 133.2264,5.7634 C134.0754,5.7634 134.7484,5.9044 135.2454,6.1834 C135.7424,6.4644 136.0954,6.9254 136.3034,7.5664 L136.4004,7.5664 L136.4004,0.3544 L137.4574,0.3544 L137.4574,18.2154 L136.5924,18.2154 L136.4954,16.3884 L136.4004,16.3884 C136.1754,17.1904 135.7944,17.7274 135.2574,17.9994 C134.7204,18.2714 134.0434,18.4084 133.2264,18.4084 C132.1844,18.4084 131.4034,18.2354 130.8824,17.8914" id="Fill-16"></path>
                    <path d="M147.025,17.086 C147.425,16.83 147.677,16.361 147.782,15.68 C147.886,14.999 147.938,13.809 147.938,12.109 C147.938,10.396 147.886,9.197 147.782,8.516 C147.677,7.835 147.425,7.362 147.025,7.098 C146.625,6.833 145.935,6.701 144.958,6.701 C143.98,6.701 143.291,6.833 142.89,7.098 C142.49,7.362 142.237,7.835 142.133,8.516 C142.029,9.197 141.977,10.396 141.977,12.109 C141.977,13.809 142.029,14.999 142.133,15.68 C142.237,16.361 142.49,16.83 142.89,17.086 C143.291,17.343 143.98,17.471 144.958,17.471 C145.935,17.471 146.625,17.343 147.025,17.086 M142.229,17.915 C141.676,17.587 141.319,17.01 141.16,16.185 C140.999,15.359 140.919,14.001 140.919,12.109 C140.919,10.219 140.999,8.857 141.16,8.023 C141.319,7.19 141.676,6.605 142.229,6.269 C142.782,5.932 143.691,5.764 144.958,5.764 C146.223,5.764 147.133,5.932 147.686,6.269 C148.239,6.605 148.595,7.19 148.755,8.023 C148.916,8.857 148.997,10.219 148.997,12.109 C148.997,14.001 148.916,15.359 148.755,16.185 C148.595,17.01 148.239,17.587 147.686,17.915 C147.133,18.243 146.223,18.408 144.958,18.408 C143.691,18.408 142.782,18.243 142.229,17.915" id="Fill-17"></path>
                    <polygon id="Fill-18" points="152.458 18.216 153.516 18.216 153.516 0.355 152.458 0.355"></polygon>
                    <path d="M160.3668,3.6963 L160.3668,3.5763 L161.7128,0.3543 L162.9148,0.3543 L162.9148,0.4743 L161.1118,3.6963 L160.3668,3.6963 Z M163.0588,17.0863 C163.4598,16.8303 163.7118,16.3613 163.8158,15.6793 C163.9208,14.9993 163.9718,13.8083 163.9718,12.1093 C163.9718,10.3953 163.9208,9.1973 163.8158,8.5153 C163.7118,7.8353 163.4598,7.3623 163.0588,7.0973 C162.6588,6.8333 161.9698,6.7013 160.9918,6.7013 C160.0138,6.7013 159.3248,6.8333 158.9248,7.0973 C158.5238,7.3623 158.2708,7.8353 158.1678,8.5153 C158.0628,9.1973 158.0118,10.3953 158.0118,12.1093 C158.0118,13.8083 158.0628,14.9993 158.1678,15.6793 C158.2708,16.3613 158.5238,16.8303 158.9248,17.0863 C159.3248,17.3423 160.0138,17.4703 160.9918,17.4703 C161.9698,17.4703 162.6588,17.3423 163.0588,17.0863 Z M158.2628,17.9153 C157.7108,17.5873 157.3528,17.0093 157.1938,16.1843 C157.0328,15.3593 156.9528,14.0013 156.9528,12.1093 C156.9528,10.2183 157.0328,8.8563 157.1938,8.0233 C157.3528,7.1903 157.7108,6.6043 158.2628,6.2683 C158.8158,5.9313 159.7248,5.7633 160.9918,5.7633 C162.2578,5.7633 163.1678,5.9313 163.7208,6.2683 C164.2728,6.6043 164.6298,7.1903 164.7898,8.0233 C164.9498,8.8563 165.0308,10.2183 165.0308,12.1093 C165.0308,14.0013 164.9498,15.3593 164.7898,16.1843 C164.6298,17.0093 164.2728,17.5873 163.7208,17.9153 C163.1678,18.2433 162.2578,18.4083 160.9918,18.4083 C159.7248,18.4083 158.8158,18.2433 158.2628,17.9153 Z" id="Fill-19"></path>
                    <path d="M173.7925,16.9902 C174.2175,16.7012 174.5095,16.2362 174.6695,15.5952 C174.8465,14.8262 174.9345,13.6562 174.9345,12.0862 C174.9345,11.2682 174.9225,10.5992 174.8975,10.0782 C174.8745,9.5572 174.8135,9.1042 174.7185,8.7202 C174.5415,7.9992 174.2365,7.4862 173.8045,7.1812 C173.3715,6.8772 172.7865,6.7242 172.0495,6.7242 C171.1515,6.7242 170.5075,6.8492 170.1145,7.0972 C169.7215,7.3462 169.4575,7.8272 169.3205,8.5402 C169.1855,9.2532 169.1165,10.4352 169.1165,12.0862 C169.1165,13.7202 169.1855,14.8982 169.3205,15.6192 C169.4575,16.3412 169.7215,16.8212 170.1145,17.0612 C170.5075,17.3022 171.1515,17.4232 172.0495,17.4232 C172.7865,17.4232 173.3675,17.2782 173.7925,16.9902 M168.3715,22.8802 L168.3715,21.9422 C169.3645,22.0212 170.3985,22.0622 171.4725,22.0622 C172.5145,22.0622 173.2755,21.9142 173.7565,21.6172 C174.2365,21.3202 174.5535,20.8202 174.7055,20.1152 C174.8575,19.4092 174.9345,18.3112 174.9345,16.8212 L174.9345,16.5812 L174.8385,16.5812 C174.6295,17.2222 174.2765,17.6832 173.7805,17.9642 C173.2835,18.2432 172.6105,18.3842 171.7615,18.3842 C170.7035,18.3842 169.9175,18.2122 169.4045,17.8672 C168.8925,17.5222 168.5395,16.9142 168.3475,16.0402 C168.1545,15.1672 168.0595,13.8482 168.0595,12.0862 C168.0595,10.3062 168.1545,8.9802 168.3475,8.1072 C168.5395,7.2342 168.8925,6.6252 169.4045,6.2802 C169.9175,5.9352 170.7035,5.7632 171.7615,5.7632 C172.5625,5.7632 173.2355,5.8992 173.7805,6.1722 C174.3245,6.4442 174.7095,6.9812 174.9345,7.7822 L175.0305,7.7822 L175.1265,5.9562 L175.9915,5.9562 L175.9915,16.3652 C175.9915,18.1602 175.8925,19.5102 175.6915,20.4152 C175.4905,21.3202 175.0825,21.9772 174.4655,22.3862 C173.8485,22.7952 172.8985,23.0002 171.6165,23.0002 C170.4945,23.0002 169.4135,22.9602 168.3715,22.8802" id="Fill-20"></path>
                    <path d="M179.886,18.216 L180.944,18.216 L180.944,5.956 L179.886,5.956 L179.886,18.216 Z M179.814,1.965 L180.992,1.965 L180.992,0.355 L179.814,0.355 L179.814,1.965 Z" id="Fill-21"></path>
                    <path d="M189.5738,18.3242 C189.1088,18.3802 188.6608,18.4082 188.2278,18.4082 C187.0738,18.4082 186.2238,18.2042 185.6788,17.7952 C185.1348,17.3872 184.7818,16.7622 184.6218,15.9202 C184.4618,15.0792 184.3818,13.8082 184.3818,12.1092 C184.3818,10.3792 184.4808,9.0682 184.6818,8.1792 C184.8828,7.2902 185.2468,6.6652 185.7758,6.3042 C186.3038,5.9432 187.0978,5.7632 188.1558,5.7632 C188.5558,5.7632 188.9928,5.7872 189.4658,5.8362 C189.9378,5.8842 190.3268,5.9482 190.6318,6.0272 L190.6318,6.9892 C189.8618,6.7972 189.1008,6.7012 188.3478,6.7012 C187.4988,6.7012 186.8738,6.8452 186.4728,7.1342 C186.0718,7.4222 185.7998,7.9302 185.6558,8.6602 C185.5118,9.3892 185.4388,10.5232 185.4388,12.0612 C185.4388,13.6482 185.5118,14.8102 185.6558,15.5482 C185.7998,16.2852 186.0718,16.7902 186.4728,17.0612 C186.8738,17.3352 187.5138,17.4702 188.3958,17.4702 C188.7808,17.4702 189.1888,17.4422 189.6218,17.3872 C190.0538,17.3302 190.4158,17.2542 190.7038,17.1582 L190.7038,18.1202 C190.4158,18.2002 190.0388,18.2672 189.5738,18.3242" id="Fill-22"></path>
                    <path d="M199.4547,17.086 C199.8547,16.83 200.1067,16.361 200.2117,15.68 C200.3147,14.999 200.3677,13.809 200.3677,12.109 C200.3677,10.396 200.3147,9.197 200.2117,8.516 C200.1067,7.835 199.8547,7.362 199.4547,7.098 C199.0537,6.833 198.3637,6.701 197.3867,6.701 C196.4087,6.701 195.7197,6.833 195.3187,7.098 C194.9187,7.362 194.6667,7.835 194.5617,8.516 C194.4577,9.197 194.4057,10.396 194.4057,12.109 C194.4057,13.809 194.4577,14.999 194.5617,15.68 C194.6667,16.361 194.9187,16.83 195.3187,17.086 C195.7197,17.343 196.4087,17.471 197.3867,17.471 C198.3637,17.471 199.0537,17.343 199.4547,17.086 M194.6587,17.915 C194.1047,17.587 193.7487,17.01 193.5887,16.185 C193.4287,15.359 193.3487,14.001 193.3487,12.109 C193.3487,10.219 193.4287,8.857 193.5887,8.023 C193.7487,7.19 194.1047,6.605 194.6587,6.269 C195.2117,5.932 196.1207,5.764 197.3867,5.764 C198.6527,5.764 199.5617,5.932 200.1147,6.269 C200.6687,6.605 201.0247,7.19 201.1847,8.023 C201.3457,8.857 201.4257,10.219 201.4257,12.109 C201.4257,14.001 201.3457,15.359 201.1847,16.185 C201.0247,17.01 200.6687,17.587 200.1147,17.915 C199.5617,18.243 198.6527,18.408 197.3867,18.408 C196.1207,18.408 195.2117,18.243 194.6587,17.915" id="Fill-23"></path>
                    <path d="M210.0552,22.8799 L210.0552,21.9429 C210.9842,22.0219 211.9702,22.0629 213.0122,22.0629 C214.0372,22.0629 214.7912,21.8939 215.2712,21.5579 C215.7522,21.2209 216.0642,20.7039 216.2092,20.0069 C216.3532,19.3099 216.4262,18.2879 216.4262,16.9419 L216.4262,16.5569 L216.3282,16.5569 C216.1522,17.1029 215.8362,17.5429 215.3792,17.8789 C214.9222,18.2159 214.1812,18.3839 213.1572,18.3839 C212.2102,18.3839 211.5012,18.2279 211.0292,17.9149 C210.5552,17.6029 210.2392,17.1179 210.0782,16.4609 C209.9182,15.8039 209.8382,14.8509 209.8382,13.6009 L209.8382,5.9559 L210.8962,5.9559 L210.8962,13.4079 C210.8962,14.6259 210.9602,15.5079 211.0882,16.0529 C211.2162,16.5979 211.4572,16.9619 211.8102,17.1469 C212.1622,17.3299 212.7312,17.4229 213.5162,17.4229 C214.4302,17.4229 215.0942,17.2099 215.5122,16.7849 C215.9282,16.3609 216.1852,15.8169 216.2812,15.1509 C216.3772,14.4859 216.4262,13.5359 216.4262,12.3019 L216.4262,5.9559 L217.4822,5.9559 L217.4822,16.4609 C217.4822,18.1759 217.3752,19.4899 217.1582,20.4029 C216.9412,21.3179 216.5292,21.9779 215.9202,22.3869 C215.3102,22.7949 214.3902,22.9999 213.1572,22.9999 C212.0822,22.9999 211.0482,22.9599 210.0552,22.8799" id="Fill-24"></path>
                    <path d="M232.2784,17.0742 C232.6714,16.8252 232.9354,16.3452 233.0724,15.6322 C233.2084,14.9192 233.2764,13.7362 233.2764,12.0862 C233.2764,10.4352 233.2084,9.2532 233.0724,8.5402 C232.9354,7.8272 232.6714,7.3462 232.2784,7.0972 C231.8854,6.8492 231.2414,6.7242 230.3434,6.7242 C229.5904,6.7242 229.0014,6.8732 228.5774,7.1702 C228.1524,7.4672 227.8594,7.9432 227.6994,8.5992 C227.5874,9.0332 227.5184,9.4982 227.4954,9.9942 C227.4704,10.4912 227.4594,11.1882 227.4594,12.0862 C227.4594,13.7202 227.5224,14.8102 227.6514,15.3552 C227.8434,16.1082 228.1524,16.6452 228.5774,16.9662 C229.0014,17.2862 229.5904,17.4462 230.3434,17.4462 C231.2414,17.4462 231.8854,17.3222 232.2784,17.0742 Z M226.4014,5.9562 L227.2664,5.9562 L227.3394,7.7822 L227.4594,7.7822 C227.6834,6.9812 228.0594,6.4442 228.5894,6.1722 C229.1174,5.8992 229.7994,5.7632 230.6324,5.7632 C231.6744,5.7632 232.4554,5.9352 232.9754,6.2802 C233.4964,6.6252 233.8534,7.2382 234.0464,8.1192 C234.2384,9.0012 234.3344,10.3232 234.3344,12.0862 C234.3344,13.8482 234.2384,15.1712 234.0464,16.0532 C233.8534,16.9332 233.5014,17.5472 232.9884,17.8912 C232.4744,18.2352 231.6894,18.4082 230.6324,18.4082 C229.7824,18.4082 229.1094,18.2672 228.6124,17.9872 C228.1164,17.7072 227.7624,17.2462 227.5544,16.6052 L227.4594,16.6052 L227.4594,22.8552 L226.4014,22.8552 L226.4014,5.9562 Z" id="Fill-25"></path>
                    <polygon id="Fill-26" points="237.796 18.216 238.854 18.216 238.854 0.355 237.796 0.355"></polygon>
                    <path d="M247.2432,17.2061 C247.6912,17.0301 248.0192,16.6611 248.2282,16.1011 C248.3732,15.6681 248.4762,15.2271 248.5412,14.7781 C248.6042,14.3301 248.6372,13.8011 248.6372,13.1911 L248.6372,12.2541 L245.2232,12.2541 C244.5982,12.2541 244.1382,12.3181 243.8412,12.4461 C243.5452,12.5751 243.3362,12.8191 243.2162,13.1801 C243.0962,13.5401 243.0362,14.0981 243.0362,14.8511 C243.0362,15.5881 243.1032,16.1371 243.2402,16.4971 C243.3762,16.8571 243.6132,17.1101 243.9492,17.2541 C244.2862,17.3981 244.7992,17.4711 245.4882,17.4711 C246.2092,17.4711 246.7942,17.3831 247.2432,17.2061 M243.3962,18.1201 C242.9162,17.9281 242.5582,17.5791 242.3272,17.0741 C242.0952,16.5691 241.9782,15.8361 241.9782,14.8741 C241.9782,13.9611 242.0662,13.2561 242.2422,12.7591 C242.4192,12.2631 242.7232,11.9051 243.1562,11.6891 C243.5892,11.4731 244.1972,11.3641 244.9832,11.3641 C245.4962,11.3641 246.7142,11.4041 248.6372,11.4841 L248.6372,10.4271 C248.6372,9.2731 248.5602,8.4431 248.4092,7.9381 C248.2562,7.4351 247.9792,7.1021 247.5792,6.9411 C247.1792,6.7811 246.5142,6.7011 245.5842,6.7011 C245.1832,6.7011 244.6822,6.7331 244.0822,6.7971 C243.4802,6.8611 242.9792,6.9341 242.5792,7.0141 L242.5792,6.0521 C243.6372,5.8591 244.7342,5.7641 245.8732,5.7641 C246.9462,5.7641 247.7482,5.8921 248.2762,6.1481 C248.8052,6.4041 249.1742,6.8501 249.3832,7.4821 C249.5912,8.1151 249.6952,9.0651 249.6952,10.3311 L249.6952,18.2161 L248.8052,18.2161 L248.7332,16.3891 L248.6132,16.3891 C248.3892,17.2061 247.9882,17.7471 247.4112,18.0121 C246.8342,18.2761 246.1442,18.4081 245.3442,18.4081 C244.5262,18.4081 243.8772,18.3111 243.3962,18.1201" id="Fill-27"></path>
                    <path d="M260.1046,10.7637 C260.1046,9.5457 260.0406,8.6637 259.9126,8.1187 C259.7836,7.5747 259.5396,7.2057 259.1786,7.0137 C258.8186,6.8217 258.2456,6.7247 257.4596,6.7247 C256.5456,6.7247 255.8846,6.9377 255.4766,7.3627 C255.0686,7.7867 254.8156,8.3317 254.7196,8.9967 C254.6236,9.6617 254.5756,10.6187 254.5756,11.8687 L254.5756,18.2157 L253.5176,18.2157 L253.5176,5.9557 L254.3826,5.9557 L254.4556,7.7827 L254.5756,7.7827 C254.7506,7.1577 255.0806,6.6647 255.5606,6.3047 C256.0416,5.9437 256.7876,5.7637 257.7956,5.7637 C258.7576,5.7637 259.4796,5.9197 259.9596,6.2327 C260.4406,6.5447 260.7606,7.0257 260.9216,7.6747 C261.0816,8.3237 261.1626,9.2657 261.1626,10.4987 L261.1626,18.2157 L260.1046,18.2157 L260.1046,10.7637 Z" id="Fill-28"></path>
                    <polygon id="Fill-29" points="265.6817 18.2158 265.6817 6.8938 263.8067 6.8938 263.8067 5.9558 265.6817 5.9558 265.6817 2.3978 266.7397 2.3978 266.7397 5.9558 268.9267 5.9558 268.9267 6.8938 266.7397 6.8938 266.7397 18.2158"></polygon>
                    <path d="M271.667,18.216 L272.725,18.216 L272.725,5.956 L271.667,5.956 L271.667,18.216 Z M271.595,1.965 L272.773,1.965 L272.773,0.355 L271.595,0.355 L271.595,1.965 Z" id="Fill-30"></path>
                    <polygon id="Fill-31" points="276.595 18.216 277.653 18.216 277.653 0.355 276.595 0.355"></polygon>
                    <polygon id="Fill-32" points="281.523 18.216 282.581 18.216 282.581 0.355 281.523 0.355"></polygon>
                    <path d="M290.9708,17.2061 C291.4188,17.0301 291.7468,16.6611 291.9558,16.1011 C292.1008,15.6681 292.2038,15.2271 292.2688,14.7781 C292.3318,14.3301 292.3648,13.8011 292.3648,13.1911 L292.3648,12.2541 L288.9508,12.2541 C288.3258,12.2541 287.8658,12.3181 287.5688,12.4461 C287.2728,12.5751 287.0638,12.8191 286.9438,13.1801 C286.8238,13.5401 286.7638,14.0981 286.7638,14.8511 C286.7638,15.5881 286.8308,16.1371 286.9678,16.4971 C287.1038,16.8571 287.3408,17.1101 287.6768,17.2541 C288.0138,17.3981 288.5268,17.4711 289.2158,17.4711 C289.9368,17.4711 290.5218,17.3831 290.9708,17.2061 M287.1238,18.1201 C286.6438,17.9281 286.2858,17.5791 286.0548,17.0741 C285.8228,16.5691 285.7058,15.8361 285.7058,14.8741 C285.7058,13.9611 285.7938,13.2561 285.9698,12.7591 C286.1468,12.2631 286.4508,11.9051 286.8838,11.6891 C287.3168,11.4731 287.9248,11.3641 288.7108,11.3641 C289.2238,11.3641 290.4418,11.4041 292.3648,11.4841 L292.3648,10.4271 C292.3648,9.2731 292.2878,8.4431 292.1368,7.9381 C291.9838,7.4351 291.7068,7.1021 291.3068,6.9411 C290.9068,6.7811 290.2418,6.7011 289.3118,6.7011 C288.9108,6.7011 288.4098,6.7331 287.8098,6.7971 C287.2078,6.8611 286.7068,6.9341 286.3068,7.0141 L286.3068,6.0521 C287.3648,5.8591 288.4618,5.7641 289.6008,5.7641 C290.6738,5.7641 291.4758,5.8921 292.0038,6.1481 C292.5328,6.4041 292.9018,6.8501 293.1108,7.4821 C293.3188,8.1151 293.4228,9.0651 293.4228,10.3311 L293.4228,18.2161 L292.5328,18.2161 L292.4608,16.3891 L292.3408,16.3891 C292.1168,17.2061 291.7158,17.7471 291.1388,18.0121 C290.5618,18.2761 289.8718,18.4081 289.0718,18.4081 C288.2538,18.4081 287.6048,18.3111 287.1238,18.1201" id="Fill-33"></path>
                    <path d="M307.9415,17.086 C308.3415,16.83 308.5945,16.361 308.6995,15.68 C308.8025,14.999 308.8555,13.809 308.8555,12.109 C308.8555,10.396 308.8025,9.197 308.6995,8.516 C308.5945,7.835 308.3415,7.362 307.9415,7.098 C307.5415,6.833 306.8515,6.701 305.8745,6.701 C304.8965,6.701 304.2075,6.833 303.8065,7.098 C303.4065,7.362 303.1535,7.835 303.0495,8.516 C302.9455,9.197 302.8935,10.396 302.8935,12.109 C302.8935,13.809 302.9455,14.999 303.0495,15.68 C303.1535,16.361 303.4065,16.83 303.8065,17.086 C304.2075,17.343 304.8965,17.471 305.8745,17.471 C306.8515,17.471 307.5415,17.343 307.9415,17.086 M303.1455,17.915 C302.5925,17.587 302.2365,17.01 302.0765,16.185 C301.9165,15.359 301.8365,14.001 301.8365,12.109 C301.8365,10.219 301.9165,8.857 302.0765,8.023 C302.2365,7.19 302.5925,6.605 303.1455,6.269 C303.6985,5.932 304.6085,5.764 305.8745,5.764 C307.1395,5.764 308.0495,5.932 308.6025,6.269 C309.1555,6.605 309.5115,7.19 309.6725,8.023 C309.8325,8.857 309.9135,10.219 309.9135,12.109 C309.9135,14.001 309.8325,15.359 309.6725,16.185 C309.5115,17.01 309.1555,17.587 308.6025,17.915 C308.0495,18.243 307.1395,18.408 305.8745,18.408 C304.6085,18.408 303.6985,18.243 303.1455,17.915" id="Fill-34"></path>
                    <path d="M313.3741,5.9561 L314.2151,5.9561 L314.3111,8.3591 L314.4321,8.3591 C314.6401,7.3661 315.0171,6.6851 315.5621,6.3161 C316.1061,5.9481 316.8271,5.7641 317.7251,5.7641 L317.7251,6.8451 C316.8441,6.8451 316.1621,7.0421 315.6821,7.4351 C315.2011,7.8271 314.8721,8.3951 314.6961,9.1411 C314.5201,9.8861 314.4321,10.8681 314.4321,12.0861 L314.4321,18.2161 L313.3741,18.2161 L313.3741,5.9561 Z" id="Fill-35"></path>
                    <polygon id="Fill-36" points="321.0909 18.2158 321.0909 6.8938 319.2159 6.8938 319.2159 5.9558 321.0909 5.9558 321.0909 2.3978 322.1489 2.3978 322.1489 5.9558 324.3359 5.9558 324.3359 6.8938 322.1489 6.8938 322.1489 18.2158"></polygon>
                    <path d="M332.629,17.086 C333.029,16.83 333.282,16.361 333.387,15.68 C333.49,14.999 333.543,13.809 333.543,12.109 C333.543,10.396 333.49,9.197 333.387,8.516 C333.282,7.835 333.029,7.362 332.629,7.098 C332.229,6.833 331.539,6.701 330.562,6.701 C329.584,6.701 328.895,6.833 328.494,7.098 C328.094,7.362 327.841,7.835 327.737,8.516 C327.633,9.197 327.581,10.396 327.581,12.109 C327.581,13.809 327.633,14.999 327.737,15.68 C327.841,16.361 328.094,16.83 328.494,17.086 C328.895,17.343 329.584,17.471 330.562,17.471 C331.539,17.471 332.229,17.343 332.629,17.086 M327.833,17.915 C327.28,17.587 326.924,17.01 326.764,16.185 C326.604,15.359 326.524,14.001 326.524,12.109 C326.524,10.219 326.604,8.857 326.764,8.023 C326.924,7.19 327.28,6.605 327.833,6.269 C328.386,5.932 329.296,5.764 330.562,5.764 C331.827,5.764 332.737,5.932 333.29,6.269 C333.843,6.605 334.199,7.19 334.36,8.023 C334.52,8.857 334.601,10.219 334.601,12.109 C334.601,14.001 334.52,15.359 334.36,16.185 C334.199,17.01 333.843,17.587 333.29,17.915 C332.737,18.243 331.827,18.408 330.562,18.408 C329.296,18.408 328.386,18.243 327.833,17.915" id="Fill-37"></path>
                    <path d="M343.9395,17.0742 C344.3325,16.8252 344.5965,16.3452 344.7335,15.6322 C344.8695,14.9192 344.9375,13.7362 344.9375,12.0862 C344.9375,10.4352 344.8695,9.2532 344.7335,8.5402 C344.5965,7.8272 344.3325,7.3462 343.9395,7.0972 C343.5465,6.8492 342.9025,6.7242 342.0045,6.7242 C341.2515,6.7242 340.6625,6.8732 340.2385,7.1702 C339.8135,7.4672 339.5205,7.9432 339.3605,8.5992 C339.2485,9.0332 339.1795,9.4982 339.1565,9.9942 C339.1315,10.4912 339.1205,11.1882 339.1205,12.0862 C339.1205,13.7202 339.1835,14.8102 339.3125,15.3552 C339.5045,16.1082 339.8135,16.6452 340.2385,16.9662 C340.6625,17.2862 341.2515,17.4462 342.0045,17.4462 C342.9025,17.4462 343.5465,17.3222 343.9395,17.0742 Z M338.0625,5.9562 L338.9275,5.9562 L339.0005,7.7822 L339.1205,7.7822 C339.3445,6.9812 339.7205,6.4442 340.2505,6.1722 C340.7785,5.8992 341.4605,5.7632 342.2935,5.7632 C343.3355,5.7632 344.1165,5.9352 344.6365,6.2802 C345.1575,6.6252 345.5145,7.2382 345.7075,8.1192 C345.8995,9.0012 345.9955,10.3232 345.9955,12.0862 C345.9955,13.8482 345.8995,15.1712 345.7075,16.0532 C345.5145,16.9332 345.1625,17.5472 344.6495,17.8912 C344.1355,18.2352 343.3505,18.4082 342.2935,18.4082 C341.4435,18.4082 340.7705,18.2672 340.2735,17.9872 C339.7775,17.7072 339.4235,17.2462 339.2155,16.6052 L339.1205,16.6052 L339.1205,22.8552 L338.0625,22.8552 L338.0625,5.9562 Z" id="Fill-38"></path>
                    <path d="M352.6065,3.6963 L352.6065,3.5763 L353.9525,0.3543 L355.1545,0.3543 L355.1545,0.4743 L353.3515,3.6963 L352.6065,3.6963 Z M351.0795,7.0373 C350.6705,7.2613 350.4025,7.6943 350.2745,8.3363 C350.1455,8.9763 350.0825,10.0423 350.0825,11.5333 L355.7545,11.5333 L355.7545,11.1003 C355.7545,9.7703 355.6785,8.8003 355.5265,8.1913 C355.3745,7.5823 355.1185,7.1813 354.7575,6.9893 C354.3965,6.7973 353.8395,6.7013 353.0865,6.7013 C352.1575,6.7013 351.4885,6.8133 351.0795,7.0373 Z M356.8125,12.4463 L350.0825,12.4463 C350.0825,13.9213 350.1495,14.9943 350.2865,15.6683 C350.4215,16.3413 350.7145,16.8093 351.1645,17.0743 C351.6125,17.3383 352.3335,17.4703 353.3275,17.4703 C353.8075,17.4703 354.3405,17.4383 354.9255,17.3743 C355.5105,17.3103 356.0195,17.2303 356.4525,17.1343 L356.4525,18.0953 C356.0835,18.1753 355.5905,18.2483 354.9735,18.3113 C354.3565,18.3763 353.7595,18.4083 353.1825,18.4083 C351.9485,18.4083 351.0435,18.2313 350.4665,17.8793 C349.8895,17.5273 349.5045,16.9223 349.3125,16.0643 C349.1205,15.2073 349.0245,13.8883 349.0245,12.1093 C349.0245,10.2993 349.0995,8.9843 349.2525,8.1673 C349.4045,7.3493 349.7655,6.7453 350.3345,6.3523 C350.9035,5.9603 351.8365,5.7633 353.1345,5.7633 C354.2895,5.7633 355.1185,5.9483 355.6235,6.3163 C356.1275,6.6853 356.4525,7.2823 356.5965,8.1073 C356.7415,8.9323 356.8125,10.2513 356.8125,12.0613 L356.8125,12.4463 Z" id="Fill-39"></path>
                    <path d="M365.5753,17.0254 C365.9993,16.7464 366.2843,16.3084 366.4293,15.7154 C366.5563,15.2184 366.6373,14.6864 366.6693,14.1174 C366.7003,13.5484 366.7173,12.7754 366.7173,11.7964 C366.7173,10.4354 366.6373,9.4014 366.4763,8.6964 C366.3163,7.9914 366.0153,7.4864 365.5753,7.1814 C365.1343,6.8774 364.5203,6.7244 363.7363,6.7244 C362.8703,6.7244 362.2493,6.8494 361.8733,7.0974 C361.4963,7.3464 361.2393,7.8314 361.1033,8.5514 C360.9673,9.2734 360.8993,10.4514 360.8993,12.0864 C360.8993,13.7364 360.9673,14.9194 361.1033,15.6314 C361.2393,16.3444 361.5043,16.8254 361.8963,17.0744 C362.2893,17.3224 362.9343,17.4464 363.8323,17.4464 C364.5693,17.4464 365.1503,17.3064 365.5753,17.0254 M361.2003,17.8914 C360.6793,17.5464 360.3223,16.9334 360.1303,16.0524 C359.9373,15.1714 359.8423,13.8484 359.8423,12.0864 C359.8423,10.3234 359.9373,9.0014 360.1303,8.1194 C360.3223,7.2384 360.6753,6.6254 361.1873,6.2804 C361.7003,5.9354 362.4853,5.7634 363.5443,5.7634 C364.3923,5.7634 365.0663,5.9044 365.5623,6.1834 C366.0593,6.4644 366.4123,6.9254 366.6213,7.5664 L366.7173,7.5664 L366.7173,0.3544 L367.7743,0.3544 L367.7743,18.2154 L366.9093,18.2154 L366.8123,16.3884 L366.7173,16.3884 C366.4923,17.1904 366.1113,17.7274 365.5753,17.9994 C365.0383,18.2714 364.3613,18.4084 363.5443,18.4084 C362.5023,18.4084 361.7213,18.2354 361.2003,17.8914" id="Fill-40"></path>
                    <path d="M371.669,18.216 L372.727,18.216 L372.727,5.956 L371.669,5.956 L371.669,18.216 Z M371.597,1.965 L372.775,1.965 L372.775,0.355 L371.597,0.355 L371.597,1.965 Z" id="Fill-41"></path>
                    <path d="M381.3575,18.3242 C380.8925,18.3802 380.4435,18.4082 380.0105,18.4082 C378.8575,18.4082 378.0075,18.2042 377.4625,17.7952 C376.9185,17.3872 376.5655,16.7622 376.4055,15.9202 C376.2455,15.0792 376.1655,13.8082 376.1655,12.1092 C376.1655,10.3792 376.2645,9.0682 376.4645,8.1792 C376.6655,7.2902 377.0305,6.6652 377.5585,6.3042 C378.0875,5.9432 378.8805,5.7632 379.9385,5.7632 C380.3385,5.7632 380.7765,5.7872 381.2495,5.8362 C381.7215,5.8842 382.1105,5.9482 382.4155,6.0272 L382.4155,6.9892 C381.6455,6.7972 380.8845,6.7012 380.1305,6.7012 C379.2815,6.7012 378.6565,6.8452 378.2555,7.1342 C377.8555,7.4222 377.5835,7.9302 377.4385,8.6602 C377.2955,9.3892 377.2225,10.5232 377.2225,12.0612 C377.2225,13.6482 377.2955,14.8102 377.4385,15.5482 C377.5835,16.2852 377.8555,16.7902 378.2555,17.0612 C378.6565,17.3352 379.2975,17.4702 380.1795,17.4702 C380.5635,17.4702 380.9725,17.4422 381.4055,17.3872 C381.8375,17.3302 382.1985,17.2542 382.4875,17.1582 L382.4875,18.1202 C382.1985,18.2002 381.8225,18.2672 381.3575,18.3242" id="Fill-42"></path>
                    <path d="M390.0831,17.2061 C390.5311,17.0301 390.8591,16.6611 391.0681,16.1011 C391.2131,15.6681 391.3161,15.2271 391.3811,14.7781 C391.4441,14.3301 391.4771,13.8011 391.4771,13.1911 L391.4771,12.2541 L388.0631,12.2541 C387.4381,12.2541 386.9781,12.3181 386.6811,12.4461 C386.3851,12.5751 386.1761,12.8191 386.0561,13.1801 C385.9361,13.5401 385.8761,14.0981 385.8761,14.8511 C385.8761,15.5881 385.9431,16.1371 386.0801,16.4971 C386.2161,16.8571 386.4531,17.1101 386.7891,17.2541 C387.1261,17.3981 387.6391,17.4711 388.3281,17.4711 C389.0491,17.4711 389.6341,17.3831 390.0831,17.2061 M386.2361,18.1201 C385.7561,17.9281 385.3981,17.5791 385.1671,17.0741 C384.9351,16.5691 384.8181,15.8361 384.8181,14.8741 C384.8181,13.9611 384.9061,13.2561 385.0821,12.7591 C385.2591,12.2631 385.5631,11.9051 385.9961,11.6891 C386.4291,11.4731 387.0371,11.3641 387.8231,11.3641 C388.3361,11.3641 389.5541,11.4041 391.4771,11.4841 L391.4771,10.4271 C391.4771,9.2731 391.4001,8.4431 391.2491,7.9381 C391.0961,7.4351 390.8191,7.1021 390.4191,6.9411 C390.0191,6.7811 389.3541,6.7011 388.4241,6.7011 C388.0231,6.7011 387.5221,6.7331 386.9221,6.7971 C386.3201,6.8611 385.8191,6.9341 385.4191,7.0141 L385.4191,6.0521 C386.4771,5.8591 387.5741,5.7641 388.7131,5.7641 C389.7861,5.7641 390.5881,5.8921 391.1161,6.1481 C391.6451,6.4041 392.0141,6.8501 392.2231,7.4821 C392.4311,8.1151 392.5351,9.0651 392.5351,10.3311 L392.5351,18.2161 L391.6451,18.2161 L391.5731,16.3891 L391.4531,16.3891 C391.2291,17.2061 390.8281,17.7471 390.2511,18.0121 C389.6741,18.2761 388.9841,18.4081 388.1841,18.4081 C387.3661,18.4081 386.7171,18.3111 386.2361,18.1201" id="Fill-43"></path>
                    <polygon id="Fill-44" points="405.148 12.449 425.828 12.449 425.828 11.449 405.148 11.449"></polygon>
                    <polygon id="Fill-45" points="0 12.449 20.679 12.449 20.679 11.449 0 11.449"></polygon>
                </g>
            </g>
            <g id="VillaFeet" mask="url(#mask-2)">
                <g transform="translate(0.000000, 206.672000)">
                    <path d="M393.3282,28.6338 L402.7892,28.6338 L403.7912,10.9138 L407.1302,10.9138 L407.1302,28.6338 L425.8282,28.6338 L425.8282,32.7958 L407.1302,32.7958 L407.1302,72.5178 C407.1302,78.3058 408.1492,82.2298 410.1912,84.2908 C412.2302,86.3538 414.7352,87.5008 417.7032,87.7398 L424.9382,88.4538 L424.9382,91.9028 L418.1482,91.9028 C412.9542,91.9028 409.0392,90.3558 406.4072,87.2648 C403.7722,84.1718 402.4922,79.2568 402.5662,72.5178 L402.9012,32.7958 L393.3282,32.7958 L393.3282,28.6338 Z" id="Fill-52" fill="#31BBAC"></path>
                    <path d="M348.1973,42.2451 C349.3473,38.4111 351.2913,35.7141 354.0383,34.1681 C356.7863,32.6211 360.7603,31.8421 365.9493,31.8421 C370.3333,31.8421 373.7583,32.3401 376.2503,33.3241 C378.7293,34.3211 380.5443,36.0081 381.6943,38.3861 C382.8443,40.7631 383.4323,44.0981 383.4323,48.3801 C383.4323,52.3421 382.5003,55.0891 380.6463,56.6361 C378.7943,58.1821 375.8153,58.9621 371.7393,58.9621 L346.4723,58.9621 C346.4723,51.6641 347.0483,46.0921 348.1973,42.2451 M353.9873,86.0811 C351.1243,84.4071 349.1693,81.7361 348.0833,78.0421 C347.0093,74.3611 346.4723,69.2241 346.4723,62.6421 L371.9563,62.6421 C382.4233,62.6421 387.6503,57.8881 387.6503,48.3801 C387.6503,40.8391 385.9253,35.5481 382.4873,32.4931 C379.0233,29.4521 373.5153,27.9181 365.9493,27.9181 C359.8663,27.9181 355.1123,28.8901 351.7123,30.8321 C348.2873,32.7741 345.8073,36.0471 344.2493,40.6471 C342.6893,45.2481 341.9103,51.7021 341.9103,60.0351 C341.9103,68.3551 342.6383,74.8601 344.0823,79.5381 C345.5263,84.2151 347.9423,87.5631 351.3163,89.5831 C354.6903,91.6021 359.4573,92.6121 365.6173,92.6121 L386.4363,92.6121 L386.4363,88.5731 L366.3963,88.5731 C360.9773,88.5731 356.8373,87.7421 353.9873,86.0811" id="Fill-54" fill="#31BBAC"></path>
                    <path d="M292.21,42.2451 C293.36,38.4111 295.303,35.7141 298.051,34.1681 C300.798,32.6211 304.773,31.8421 309.962,31.8421 C314.346,31.8421 317.771,32.3401 320.263,33.3241 C322.742,34.3211 324.557,36.0081 325.707,38.3861 C326.857,40.7631 327.445,44.0981 327.445,48.3801 C327.445,52.3421 326.512,55.0891 324.659,56.6361 C322.806,58.1821 319.828,58.9621 315.751,58.9621 L290.484,58.9621 C290.484,51.6641 291.06,46.0921 292.21,42.2451 M297.999,86.0811 C295.137,84.4071 293.182,81.7361 292.095,78.0421 C291.022,74.3611 290.484,69.2241 290.484,62.6421 L315.969,62.6421 C326.436,62.6421 331.662,57.8881 331.662,48.3801 C331.662,40.8391 329.938,35.5481 326.499,32.4931 C323.036,29.4521 317.527,27.9181 309.962,27.9181 C303.878,27.9181 299.124,28.8901 295.725,30.8321 C292.3,32.7741 289.82,36.0471 288.261,40.6471 C286.702,45.2481 285.922,51.7021 285.922,60.0351 C285.922,68.3551 286.65,74.8601 288.095,79.5381 C289.539,84.2151 291.954,87.5631 295.328,89.5831 C298.702,91.6021 303.47,92.6121 309.63,92.6121 L330.448,92.6121 L330.448,88.5731 L310.409,88.5731 C304.99,88.5731 300.85,87.7421 297.999,86.0811" id="Fill-51" fill="#31BBAC"></path>
                    <path d="M282.4747,0.4473 L282.4747,4.6093 L272.0127,4.6093 C267.4857,4.6093 264.4447,5.7803 262.8847,8.1183 C261.3277,10.4583 260.5477,14.2433 260.5477,19.4753 L260.5477,28.6343 L280.6947,28.6343 L280.6947,32.7963 L260.5477,32.7963 L260.5477,91.9023 L255.9847,91.9023 L255.9847,32.7963 L246.5247,32.7963 L246.5247,28.6343 L255.9847,28.6343 L255.9847,19.5953 C255.9847,13.1733 257.0977,8.3763 259.3237,5.2053 C261.5497,2.0353 265.6297,0.4473 271.5667,0.4473 L282.4747,0.4473 Z" id="Fill-53" fill="#31BBAC"></path>
                    <path d="M213.1993,76.3819 C214.3483,76.0259 215.2203,75.6899 215.8143,75.3709 L215.8143,63.8349 L211.2513,64.5489 C209.0983,64.8659 207.5043,65.4619 206.4663,66.3329 C205.4263,67.2059 204.9073,68.4729 204.9073,70.1379 L204.9073,72.5169 C204.9073,74.1049 205.3523,75.2349 206.2433,75.9059 C207.1343,76.5809 208.4313,76.9179 210.1383,76.9179 C211.0293,76.9179 212.0483,76.7389 213.1993,76.3819 Z M212.4763,27.0869 C220.7123,27.0869 226.9263,28.6929 231.1193,31.9029 C235.3103,35.1139 237.4073,40.9619 237.4073,49.4449 L237.4073,91.9029 L220.2673,91.9029 L216.9283,85.4799 C215.1463,87.3829 212.7353,89.0479 209.6933,90.4759 C206.6503,91.9029 203.0153,92.6159 198.7863,92.6159 C194.1113,92.6159 190.3633,91.1499 187.5443,88.2149 C184.7243,85.2829 183.3153,81.3179 183.3153,76.3219 L183.3153,69.7809 C183.3153,64.7859 185.0213,60.7639 188.4353,57.7109 C191.8463,54.6589 196.9673,53.1319 203.7943,53.1319 L215.8143,53.1319 L215.8143,51.1109 C215.8143,49.3679 215.5533,48.0769 215.0363,47.2449 C214.5153,46.4119 213.4583,45.8189 211.8643,45.4609 C210.2673,45.1049 207.7623,44.9259 204.3513,44.9259 L194.2963,44.9259 C190.1983,44.9259 186.8773,41.6049 186.8773,37.5069 L186.8773,27.0869 L212.4763,27.0869 Z" id="Fill-50" fill="#FFFFFF"></path>
                    <path d="M154.1558,86.9668 C150.7418,83.4408 149.0358,78.1468 149.0358,71.0908 L149.0358,8.2828 C149.0358,4.3498 152.2248,1.1608 156.1588,1.1608 L170.6288,1.1608 L170.6288,67.5228 C170.6288,69.8218 170.9988,71.5468 171.7408,72.6958 C172.4828,73.8458 173.7068,74.5798 175.4138,74.8958 L179.0868,75.4898 L179.0868,92.2588 L169.8488,92.2588 C162.7998,92.2588 157.5678,90.4948 154.1558,86.9668" id="Fill-49" fill="#FFFFFF"></path>
                    <path d="M117.8731,86.9668 C114.4591,83.4408 112.7531,78.1468 112.7531,71.0908 L112.7531,8.2828 C112.7531,4.3498 115.9421,1.1608 119.8761,1.1608 L134.3461,1.1608 L134.3461,67.5228 C134.3461,69.8218 134.7161,71.5468 135.4581,72.6958 C136.2001,73.8458 137.4241,74.5798 139.1311,74.8958 L142.8041,75.4898 L142.8041,92.2588 L133.5661,92.2588 C126.5171,92.2588 121.2851,90.4948 117.8731,86.9668" id="Fill-48" fill="#FFFFFF"></path>
                    <path d="M81.3663,27.8008 L102.9583,27.8008 L102.9583,84.6558 C102.9583,88.6578 99.7143,91.9028 95.7133,91.9028 L88.6123,91.9028 C84.6103,91.9028 81.3663,88.6578 81.3663,84.6558 L81.3663,27.8008 Z M81.8663,18.9418 C81.3843,18.4258 81.1433,17.7718 81.1433,16.9778 L81.1433,3.7778 C81.1433,2.8258 81.3663,2.0938 81.8113,1.5758 C82.2573,1.0628 82.9243,0.8038 83.8153,0.8038 L100.7323,0.8038 C101.5483,0.8038 102.1603,1.0818 102.5693,1.6368 C102.9763,2.1928 103.1813,2.9058 103.1813,3.7778 L103.1813,16.9778 C103.1813,18.8028 102.3643,19.7138 100.7323,19.7138 L83.8153,19.7138 C82.9973,19.7138 82.3483,19.4578 81.8663,18.9418 Z" id="Fill-47" fill="#FFFFFF"></path>
                    <path d="M0.0001,3.5401 L22.3721,3.5401 L38.0661,66.8101 L53.7601,3.5401 L75.9091,3.5401 L53.5341,84.2841 C52.2861,88.7871 48.1881,91.9041 43.5151,91.9041 L32.3941,91.9041 C27.7211,91.9041 23.6231,88.7871 22.3751,84.2841 L0.0001,3.5401 Z" id="Fill-46" fill="#FFFFFF"></path>
                </g>
            </g>
            <g id="Isotipo" mask="url(#mask-2)">
                <g transform="translate(129.000000, 1.000000)">
                    <path d="M107.896,0 C108.137,10.11 108.256,20.24 108.406,30.4 C108.487,35.48 108.177,41.41 111.046,45.869 C114.806,51.7 123.406,53.7 128.357,58.42 C142.177,71.61 120.576,85.74 116.187,97.5 C111.256,110.71 117.006,124.57 110.226,137.66 C107.927,142.11 105.406,145.37 102.607,147.98 L112.897,183.79 C116.986,183.69 120.546,182.27 123.517,179.529 C126.616,176.7 128.626,172.98 129.576,168.36 L180.017,0 L107.896,0 Z" id="Fill-56" fill="url(#linearGradient-3)"></path>
                    <path d="M0.467,0 L50.937,168.36 C51.857,172.98 53.876,176.7 56.966,179.529 C60.086,182.389 63.806,183.81 68.147,183.81 L112.357,183.81 C112.527,183.81 112.717,183.81 112.897,183.79 L102.607,147.98 C98.017,152.27 92.647,154.82 86.147,157.96 C81.727,160.09 77.516,163.9 72.246,163.18 C65.676,162.29 62.727,158.25 67.147,153.74 C69.207,151.64 72.117,150.999 74.416,148.32 C76.147,146.3 77.786,144 79.217,141.75 C83.446,135.11 84.016,130.79 81.776,123.36 C77.756,109.959 72.766,97.58 69.706,83.82 C66.506,69.43 65.907,54.97 65.117,40.26 C65.287,29.54 62.526,13.85 59.527,0 L0.467,0 Z" id="Fill-59" fill="url(#linearGradient-4)"></path>
                </g>
            </g>
        </g>
    </g>
</svg>